<mxfile host="app.diagrams.net" modified="2023-12-18T03:19:11.924Z" agent="Mozilla/5.0 (Macintosh; Intel Mac OS X 10_15_7) AppleWebKit/537.36 (KHTML, like Gecko) Chrome/120.0.0.0 Safari/537.36" etag="ooh3o20nPhfrg60VB546" version="21.2.1" type="github">
  <diagram name="第 1 页" id="wS8WBx-wSeCiqW6q_hii">
    <mxGraphModel dx="1434" dy="786" grid="1" gridSize="10" guides="1" tooltips="1" connect="1" arrows="1" fold="1" page="1" pageScale="1" pageWidth="827" pageHeight="1169" math="0" shadow="0">
      <root>
        <mxCell id="0" />
        <mxCell id="1" parent="0" />
        <mxCell id="x7juZ-qJNTlQn1j_MqSp-1" value="用户" style="shape=umlLifeline;perimeter=lifelinePerimeter;whiteSpace=wrap;html=1;container=1;dropTarget=0;collapsible=0;recursiveResize=0;outlineConnect=0;portConstraint=eastwest;newEdgeStyle={&quot;edgeStyle&quot;:&quot;elbowEdgeStyle&quot;,&quot;elbow&quot;:&quot;vertical&quot;,&quot;curved&quot;:0,&quot;rounded&quot;:0};" vertex="1" parent="1">
          <mxGeometry x="80" y="30" width="145" height="720" as="geometry" />
        </mxCell>
        <mxCell id="x7juZ-qJNTlQn1j_MqSp-19" value="" style="html=1;points=[];perimeter=orthogonalPerimeter;outlineConnect=0;targetShapes=umlLifeline;portConstraint=eastwest;newEdgeStyle={&quot;edgeStyle&quot;:&quot;elbowEdgeStyle&quot;,&quot;elbow&quot;:&quot;vertical&quot;,&quot;curved&quot;:0,&quot;rounded&quot;:0};" vertex="1" parent="x7juZ-qJNTlQn1j_MqSp-1">
          <mxGeometry x="67.5" y="270" width="10" height="60" as="geometry" />
        </mxCell>
        <mxCell id="x7juZ-qJNTlQn1j_MqSp-2" value="server" style="shape=umlLifeline;perimeter=lifelinePerimeter;whiteSpace=wrap;html=1;container=1;dropTarget=0;collapsible=0;recursiveResize=0;outlineConnect=0;portConstraint=eastwest;newEdgeStyle={&quot;edgeStyle&quot;:&quot;elbowEdgeStyle&quot;,&quot;elbow&quot;:&quot;vertical&quot;,&quot;curved&quot;:0,&quot;rounded&quot;:0};" vertex="1" parent="1">
          <mxGeometry x="500" y="30" width="100" height="720" as="geometry" />
        </mxCell>
        <mxCell id="x7juZ-qJNTlQn1j_MqSp-14" value="" style="html=1;points=[];perimeter=orthogonalPerimeter;outlineConnect=0;targetShapes=umlLifeline;portConstraint=eastwest;newEdgeStyle={&quot;edgeStyle&quot;:&quot;elbowEdgeStyle&quot;,&quot;elbow&quot;:&quot;vertical&quot;,&quot;curved&quot;:0,&quot;rounded&quot;:0};" vertex="1" parent="x7juZ-qJNTlQn1j_MqSp-2">
          <mxGeometry x="45" y="100" width="10" height="160" as="geometry" />
        </mxCell>
        <mxCell id="x7juZ-qJNTlQn1j_MqSp-25" value="" style="html=1;points=[];perimeter=orthogonalPerimeter;outlineConnect=0;targetShapes=umlLifeline;portConstraint=eastwest;newEdgeStyle={&quot;edgeStyle&quot;:&quot;elbowEdgeStyle&quot;,&quot;elbow&quot;:&quot;vertical&quot;,&quot;curved&quot;:0,&quot;rounded&quot;:0};" vertex="1" parent="x7juZ-qJNTlQn1j_MqSp-2">
          <mxGeometry x="45" y="340" width="10" height="170" as="geometry" />
        </mxCell>
        <mxCell id="x7juZ-qJNTlQn1j_MqSp-50" value="" style="html=1;points=[];perimeter=orthogonalPerimeter;outlineConnect=0;targetShapes=umlLifeline;portConstraint=eastwest;newEdgeStyle={&quot;edgeStyle&quot;:&quot;elbowEdgeStyle&quot;,&quot;elbow&quot;:&quot;vertical&quot;,&quot;curved&quot;:0,&quot;rounded&quot;:0};" vertex="1" parent="x7juZ-qJNTlQn1j_MqSp-2">
          <mxGeometry x="45" y="540" width="10" height="140" as="geometry" />
        </mxCell>
        <mxCell id="x7juZ-qJNTlQn1j_MqSp-3" value="web" style="shape=umlLifeline;perimeter=lifelinePerimeter;whiteSpace=wrap;html=1;container=1;dropTarget=0;collapsible=0;recursiveResize=0;outlineConnect=0;portConstraint=eastwest;newEdgeStyle={&quot;edgeStyle&quot;:&quot;elbowEdgeStyle&quot;,&quot;elbow&quot;:&quot;vertical&quot;,&quot;curved&quot;:0,&quot;rounded&quot;:0};" vertex="1" parent="1">
          <mxGeometry x="290" y="30" width="145" height="720" as="geometry" />
        </mxCell>
        <mxCell id="x7juZ-qJNTlQn1j_MqSp-8" value="" style="html=1;points=[];perimeter=orthogonalPerimeter;outlineConnect=0;targetShapes=umlLifeline;portConstraint=eastwest;newEdgeStyle={&quot;edgeStyle&quot;:&quot;elbowEdgeStyle&quot;,&quot;elbow&quot;:&quot;vertical&quot;,&quot;curved&quot;:0,&quot;rounded&quot;:0};" vertex="1" parent="x7juZ-qJNTlQn1j_MqSp-3">
          <mxGeometry x="67.5" y="80" width="10" height="80" as="geometry" />
        </mxCell>
        <mxCell id="x7juZ-qJNTlQn1j_MqSp-11" value="" style="html=1;points=[];perimeter=orthogonalPerimeter;outlineConnect=0;targetShapes=umlLifeline;portConstraint=eastwest;newEdgeStyle={&quot;edgeStyle&quot;:&quot;elbowEdgeStyle&quot;,&quot;elbow&quot;:&quot;vertical&quot;,&quot;curved&quot;:0,&quot;rounded&quot;:0};" vertex="1" parent="x7juZ-qJNTlQn1j_MqSp-3">
          <mxGeometry x="67.5" y="190" width="10" height="40" as="geometry" />
        </mxCell>
        <mxCell id="x7juZ-qJNTlQn1j_MqSp-12" value="存在token和cookie" style="html=1;align=left;spacingLeft=2;endArrow=block;rounded=0;edgeStyle=orthogonalEdgeStyle;curved=0;rounded=0;" edge="1" target="x7juZ-qJNTlQn1j_MqSp-11" parent="x7juZ-qJNTlQn1j_MqSp-3" source="x7juZ-qJNTlQn1j_MqSp-8">
          <mxGeometry relative="1" as="geometry">
            <mxPoint x="50" y="170" as="sourcePoint" />
            <Array as="points">
              <mxPoint x="100" y="120" />
              <mxPoint x="100" y="200" />
            </Array>
          </mxGeometry>
        </mxCell>
        <mxCell id="x7juZ-qJNTlQn1j_MqSp-13" value="登录成功" style="edgeLabel;html=1;align=center;verticalAlign=middle;resizable=0;points=[];" vertex="1" connectable="0" parent="x7juZ-qJNTlQn1j_MqSp-12">
          <mxGeometry x="0.5231" y="-4" relative="1" as="geometry">
            <mxPoint as="offset" />
          </mxGeometry>
        </mxCell>
        <mxCell id="x7juZ-qJNTlQn1j_MqSp-16" value="" style="html=1;points=[];perimeter=orthogonalPerimeter;outlineConnect=0;targetShapes=umlLifeline;portConstraint=eastwest;newEdgeStyle={&quot;edgeStyle&quot;:&quot;elbowEdgeStyle&quot;,&quot;elbow&quot;:&quot;vertical&quot;,&quot;curved&quot;:0,&quot;rounded&quot;:0};" vertex="1" parent="x7juZ-qJNTlQn1j_MqSp-3">
          <mxGeometry x="67.5" y="250" width="10" height="50" as="geometry" />
        </mxCell>
        <mxCell id="x7juZ-qJNTlQn1j_MqSp-46" value="" style="html=1;points=[];perimeter=orthogonalPerimeter;outlineConnect=0;targetShapes=umlLifeline;portConstraint=eastwest;newEdgeStyle={&quot;edgeStyle&quot;:&quot;elbowEdgeStyle&quot;,&quot;elbow&quot;:&quot;vertical&quot;,&quot;curved&quot;:0,&quot;rounded&quot;:0};" vertex="1" parent="x7juZ-qJNTlQn1j_MqSp-3">
          <mxGeometry x="67.5" y="470" width="10" height="90" as="geometry" />
        </mxCell>
        <mxCell id="x7juZ-qJNTlQn1j_MqSp-57" value="" style="html=1;points=[];perimeter=orthogonalPerimeter;outlineConnect=0;targetShapes=umlLifeline;portConstraint=eastwest;newEdgeStyle={&quot;edgeStyle&quot;:&quot;elbowEdgeStyle&quot;,&quot;elbow&quot;:&quot;vertical&quot;,&quot;curved&quot;:0,&quot;rounded&quot;:0};" vertex="1" parent="x7juZ-qJNTlQn1j_MqSp-3">
          <mxGeometry x="67.5" y="640" width="10" height="40" as="geometry" />
        </mxCell>
        <mxCell id="x7juZ-qJNTlQn1j_MqSp-4" value="IDP(认证中心)" style="shape=umlLifeline;perimeter=lifelinePerimeter;whiteSpace=wrap;html=1;container=1;dropTarget=0;collapsible=0;recursiveResize=0;outlineConnect=0;portConstraint=eastwest;newEdgeStyle={&quot;edgeStyle&quot;:&quot;elbowEdgeStyle&quot;,&quot;elbow&quot;:&quot;vertical&quot;,&quot;curved&quot;:0,&quot;rounded&quot;:0};" vertex="1" parent="1">
          <mxGeometry x="700" y="30" width="100" height="730" as="geometry" />
        </mxCell>
        <mxCell id="x7juZ-qJNTlQn1j_MqSp-22" value="" style="html=1;points=[];perimeter=orthogonalPerimeter;outlineConnect=0;targetShapes=umlLifeline;portConstraint=eastwest;newEdgeStyle={&quot;edgeStyle&quot;:&quot;elbowEdgeStyle&quot;,&quot;elbow&quot;:&quot;vertical&quot;,&quot;curved&quot;:0,&quot;rounded&quot;:0};" vertex="1" parent="x7juZ-qJNTlQn1j_MqSp-4">
          <mxGeometry x="45" y="290" width="10" height="70" as="geometry" />
        </mxCell>
        <mxCell id="x7juZ-qJNTlQn1j_MqSp-9" value="访问前端地址" style="html=1;verticalAlign=bottom;endArrow=block;edgeStyle=elbowEdgeStyle;elbow=vertical;curved=0;rounded=0;" edge="1" target="x7juZ-qJNTlQn1j_MqSp-8" parent="1" source="x7juZ-qJNTlQn1j_MqSp-1">
          <mxGeometry relative="1" as="geometry">
            <mxPoint x="190" y="110" as="sourcePoint" />
            <Array as="points">
              <mxPoint x="258" y="120" />
            </Array>
          </mxGeometry>
        </mxCell>
        <mxCell id="x7juZ-qJNTlQn1j_MqSp-15" value="不存在token和cookie" style="html=1;verticalAlign=bottom;startArrow=none;endArrow=block;startSize=8;edgeStyle=elbowEdgeStyle;elbow=vertical;curved=0;rounded=0;startFill=0;" edge="1" target="x7juZ-qJNTlQn1j_MqSp-14" parent="1" source="x7juZ-qJNTlQn1j_MqSp-3">
          <mxGeometry relative="1" as="geometry">
            <mxPoint x="485" y="130" as="sourcePoint" />
            <Array as="points">
              <mxPoint x="500" y="140" />
            </Array>
          </mxGeometry>
        </mxCell>
        <mxCell id="x7juZ-qJNTlQn1j_MqSp-17" value="生成samlRequest" style="html=1;verticalAlign=bottom;endArrow=block;edgeStyle=elbowEdgeStyle;elbow=vertical;curved=0;rounded=0;" edge="1" target="x7juZ-qJNTlQn1j_MqSp-16" parent="1" source="x7juZ-qJNTlQn1j_MqSp-14">
          <mxGeometry relative="1" as="geometry">
            <mxPoint x="415" y="280" as="sourcePoint" />
          </mxGeometry>
        </mxCell>
        <mxCell id="x7juZ-qJNTlQn1j_MqSp-20" value="重定向到AzureAD登录页面" style="html=1;verticalAlign=bottom;endArrow=block;edgeStyle=elbowEdgeStyle;elbow=vertical;curved=0;rounded=0;" edge="1" target="x7juZ-qJNTlQn1j_MqSp-19" parent="1">
          <mxGeometry relative="1" as="geometry">
            <mxPoint x="360" y="310" as="sourcePoint" />
            <Array as="points">
              <mxPoint x="270" y="310" />
            </Array>
          </mxGeometry>
        </mxCell>
        <mxCell id="x7juZ-qJNTlQn1j_MqSp-23" value="" style="edgeStyle=elbowEdgeStyle;rounded=0;orthogonalLoop=1;jettySize=auto;html=1;elbow=vertical;curved=0;" edge="1" parent="1" source="x7juZ-qJNTlQn1j_MqSp-19" target="x7juZ-qJNTlQn1j_MqSp-22">
          <mxGeometry relative="1" as="geometry" />
        </mxCell>
        <mxCell id="x7juZ-qJNTlQn1j_MqSp-24" value="输入用户名密码" style="edgeLabel;html=1;align=center;verticalAlign=middle;resizable=0;points=[];" vertex="1" connectable="0" parent="x7juZ-qJNTlQn1j_MqSp-23">
          <mxGeometry x="0.0366" relative="1" as="geometry">
            <mxPoint as="offset" />
          </mxGeometry>
        </mxCell>
        <mxCell id="x7juZ-qJNTlQn1j_MqSp-26" value="" style="edgeStyle=elbowEdgeStyle;rounded=0;orthogonalLoop=1;jettySize=auto;html=1;elbow=vertical;curved=0;" edge="1" parent="1" source="x7juZ-qJNTlQn1j_MqSp-22" target="x7juZ-qJNTlQn1j_MqSp-25">
          <mxGeometry relative="1" as="geometry" />
        </mxCell>
        <mxCell id="x7juZ-qJNTlQn1j_MqSp-27" value="认证成功，请求Reply URL&lt;br&gt;并返回smalResponse&lt;br&gt;" style="edgeLabel;html=1;align=center;verticalAlign=middle;resizable=0;points=[];" vertex="1" connectable="0" parent="x7juZ-qJNTlQn1j_MqSp-26">
          <mxGeometry x="0.2" y="2" relative="1" as="geometry">
            <mxPoint as="offset" />
          </mxGeometry>
        </mxCell>
        <mxCell id="x7juZ-qJNTlQn1j_MqSp-42" value="" style="endArrow=classic;html=1;rounded=0;edgeStyle=orthogonalEdgeStyle;" edge="1" parent="1" target="x7juZ-qJNTlQn1j_MqSp-25">
          <mxGeometry relative="1" as="geometry">
            <mxPoint x="560" y="430" as="sourcePoint" />
            <mxPoint x="650" y="430" as="targetPoint" />
            <Array as="points">
              <mxPoint x="610" y="430" />
              <mxPoint x="610" y="500" />
            </Array>
          </mxGeometry>
        </mxCell>
        <mxCell id="x7juZ-qJNTlQn1j_MqSp-45" value="解析response&lt;br&gt;获取NameID，&lt;br&gt;并放入cookie" style="edgeLabel;html=1;align=center;verticalAlign=middle;resizable=0;points=[];" vertex="1" connectable="0" parent="x7juZ-qJNTlQn1j_MqSp-42">
          <mxGeometry x="-0.4667" y="-4" relative="1" as="geometry">
            <mxPoint as="offset" />
          </mxGeometry>
        </mxCell>
        <mxCell id="x7juZ-qJNTlQn1j_MqSp-47" value="" style="edgeStyle=elbowEdgeStyle;rounded=0;orthogonalLoop=1;jettySize=auto;html=1;elbow=vertical;curved=0;" edge="1" parent="1" source="x7juZ-qJNTlQn1j_MqSp-25" target="x7juZ-qJNTlQn1j_MqSp-46">
          <mxGeometry relative="1" as="geometry" />
        </mxCell>
        <mxCell id="x7juZ-qJNTlQn1j_MqSp-49" value="重定向前端页面" style="edgeLabel;html=1;align=center;verticalAlign=middle;resizable=0;points=[];" vertex="1" connectable="0" parent="x7juZ-qJNTlQn1j_MqSp-47">
          <mxGeometry x="0.1" y="-1" relative="1" as="geometry">
            <mxPoint as="offset" />
          </mxGeometry>
        </mxCell>
        <mxCell id="x7juZ-qJNTlQn1j_MqSp-51" value="" style="edgeStyle=elbowEdgeStyle;rounded=0;orthogonalLoop=1;jettySize=auto;html=1;elbow=vertical;curved=0;" edge="1" parent="1" source="x7juZ-qJNTlQn1j_MqSp-46" target="x7juZ-qJNTlQn1j_MqSp-50">
          <mxGeometry relative="1" as="geometry" />
        </mxCell>
        <mxCell id="x7juZ-qJNTlQn1j_MqSp-52" value="从cookie获取参数&lt;br&gt;请求登录接口" style="text;html=1;align=center;verticalAlign=middle;resizable=0;points=[];autosize=1;strokeColor=none;fillColor=none;" vertex="1" parent="1">
          <mxGeometry x="380" y="553" width="120" height="40" as="geometry" />
        </mxCell>
        <mxCell id="x7juZ-qJNTlQn1j_MqSp-58" value="登录成功&lt;br&gt;返回token" style="html=1;verticalAlign=bottom;endArrow=block;edgeStyle=elbowEdgeStyle;elbow=horizontal;curved=0;rounded=0;" edge="1" target="x7juZ-qJNTlQn1j_MqSp-57" parent="1" source="x7juZ-qJNTlQn1j_MqSp-2">
          <mxGeometry relative="1" as="geometry">
            <mxPoint x="490" y="630" as="sourcePoint" />
            <Array as="points">
              <mxPoint x="470" y="680" />
            </Array>
          </mxGeometry>
        </mxCell>
        <mxCell id="x7juZ-qJNTlQn1j_MqSp-62" value="" style="endArrow=classic;html=1;rounded=0;edgeStyle=orthogonalEdgeStyle;" edge="1" parent="1">
          <mxGeometry relative="1" as="geometry">
            <mxPoint x="558" y="595" as="sourcePoint" />
            <mxPoint x="553" y="665" as="targetPoint" />
            <Array as="points">
              <mxPoint x="608" y="595" />
              <mxPoint x="608" y="665" />
            </Array>
          </mxGeometry>
        </mxCell>
        <mxCell id="x7juZ-qJNTlQn1j_MqSp-63" value="把该参数和&lt;br&gt;用户信息比对" style="edgeLabel;html=1;align=center;verticalAlign=middle;resizable=0;points=[];" vertex="1" connectable="0" parent="x7juZ-qJNTlQn1j_MqSp-62">
          <mxGeometry x="-0.4667" y="-4" relative="1" as="geometry">
            <mxPoint as="offset" />
          </mxGeometry>
        </mxCell>
      </root>
    </mxGraphModel>
  </diagram>
</mxfile>
